<mxfile host="app.diagrams.net" agent="Mozilla/5.0 (Windows NT 10.0; Win64; x64) AppleWebKit/537.36 (KHTML, like Gecko) Chrome/131.0.0.0 Safari/537.36" version="26.0.2">
  <diagram name="Page-1" id="bljyWgq5ONYgIyqUWVHa">
    <mxGraphModel dx="3778" dy="193" grid="1" gridSize="10" guides="1" tooltips="1" connect="1" arrows="1" fold="1" page="1" pageScale="1" pageWidth="3300" pageHeight="4681" math="0" shadow="0">
      <root>
        <mxCell id="0" />
        <mxCell id="1" parent="0" />
        <mxCell id="QzwXXjxtQFz9qJuiZk76-1" value="" style="verticalLabelPosition=bottom;verticalAlign=top;html=1;shape=mxgraph.basic.rect;fillColor2=none;strokeWidth=1;size=20;indent=5;" vertex="1" parent="1">
          <mxGeometry y="40" width="470" height="60" as="geometry" />
        </mxCell>
        <mxCell id="QzwXXjxtQFz9qJuiZk76-2" value="&lt;font style=&quot;font-size: 18px;&quot;&gt;Event&lt;/font&gt;&lt;div&gt;&lt;br&gt;&lt;/div&gt;" style="text;strokeColor=none;fillColor=none;spacingLeft=4;spacingRight=4;overflow=hidden;rotatable=0;points=[[0,0.5],[1,0.5]];portConstraint=eastwest;fontSize=12;whiteSpace=wrap;html=1;" vertex="1" parent="1">
          <mxGeometry y="10" width="140" height="30" as="geometry" />
        </mxCell>
        <mxCell id="QzwXXjxtQFz9qJuiZk76-4" value="" style="endArrow=none;html=1;rounded=0;" edge="1" parent="1">
          <mxGeometry relative="1" as="geometry">
            <mxPoint x="80" y="40" as="sourcePoint" />
            <mxPoint x="80.5" y="100" as="targetPoint" />
          </mxGeometry>
        </mxCell>
        <mxCell id="QzwXXjxtQFz9qJuiZk76-14" value="" style="line;strokeWidth=1;rotatable=0;dashed=0;labelPosition=right;align=left;verticalAlign=middle;spacingTop=0;spacingLeft=6;points=[];portConstraint=eastwest;" vertex="1" parent="1">
          <mxGeometry x="10" y="80" width="60" height="10" as="geometry" />
        </mxCell>
        <mxCell id="QzwXXjxtQFz9qJuiZk76-15" value="EventID" style="text;strokeColor=none;fillColor=none;spacingLeft=4;spacingRight=4;overflow=hidden;rotatable=0;points=[[0,0.5],[1,0.5]];portConstraint=eastwest;fontSize=12;whiteSpace=wrap;html=1;" vertex="1" parent="1">
          <mxGeometry x="10" y="55" width="60" height="30" as="geometry" />
        </mxCell>
        <mxCell id="QzwXXjxtQFz9qJuiZk76-16" value="EventName" style="text;strokeColor=none;fillColor=none;spacingLeft=4;spacingRight=4;overflow=hidden;rotatable=0;points=[[0,0.5],[1,0.5]];portConstraint=eastwest;fontSize=12;whiteSpace=wrap;html=1;" vertex="1" parent="1">
          <mxGeometry x="90" y="55" width="80" height="30" as="geometry" />
        </mxCell>
        <mxCell id="QzwXXjxtQFz9qJuiZk76-17" value="" style="endArrow=none;html=1;rounded=0;exitX=0.296;exitY=-0.009;exitDx=0;exitDy=0;exitPerimeter=0;entryX=0.296;entryY=0.987;entryDx=0;entryDy=0;entryPerimeter=0;" edge="1" parent="1">
          <mxGeometry relative="1" as="geometry">
            <mxPoint x="169.99999999999994" y="40.24000000000001" as="sourcePoint" />
            <mxPoint x="169.99999999999994" y="99.99999999999997" as="targetPoint" />
          </mxGeometry>
        </mxCell>
        <mxCell id="QzwXXjxtQFz9qJuiZk76-18" value="Description" style="text;strokeColor=none;fillColor=none;spacingLeft=4;spacingRight=4;overflow=hidden;rotatable=0;points=[[0,0.5],[1,0.5]];portConstraint=eastwest;fontSize=12;whiteSpace=wrap;html=1;" vertex="1" parent="1">
          <mxGeometry x="180" y="55" width="80" height="30" as="geometry" />
        </mxCell>
        <mxCell id="QzwXXjxtQFz9qJuiZk76-20" value="" style="endArrow=none;html=1;rounded=0;exitX=0.296;exitY=-0.009;exitDx=0;exitDy=0;exitPerimeter=0;entryX=0.296;entryY=0.987;entryDx=0;entryDy=0;entryPerimeter=0;" edge="1" parent="1">
          <mxGeometry relative="1" as="geometry">
            <mxPoint x="260" y="40" as="sourcePoint" />
            <mxPoint x="260" y="100" as="targetPoint" />
          </mxGeometry>
        </mxCell>
        <mxCell id="QzwXXjxtQFz9qJuiZk76-21" value="EventDate" style="text;strokeColor=none;fillColor=none;spacingLeft=4;spacingRight=4;overflow=hidden;rotatable=0;points=[[0,0.5],[1,0.5]];portConstraint=eastwest;fontSize=12;whiteSpace=wrap;html=1;" vertex="1" parent="1">
          <mxGeometry x="270" y="55" width="80" height="30" as="geometry" />
        </mxCell>
        <mxCell id="QzwXXjxtQFz9qJuiZk76-22" value="" style="endArrow=none;html=1;rounded=0;exitX=0.296;exitY=-0.009;exitDx=0;exitDy=0;exitPerimeter=0;entryX=0.296;entryY=0.987;entryDx=0;entryDy=0;entryPerimeter=0;" edge="1" parent="1">
          <mxGeometry relative="1" as="geometry">
            <mxPoint x="360" y="40" as="sourcePoint" />
            <mxPoint x="360" y="100" as="targetPoint" />
          </mxGeometry>
        </mxCell>
        <mxCell id="QzwXXjxtQFz9qJuiZk76-23" value="SportID" style="text;strokeColor=none;fillColor=none;spacingLeft=4;spacingRight=4;overflow=hidden;rotatable=0;points=[[0,0.5],[1,0.5]];portConstraint=eastwest;fontSize=12;whiteSpace=wrap;html=1;" vertex="1" parent="1">
          <mxGeometry x="380" y="55" width="80" height="30" as="geometry" />
        </mxCell>
        <mxCell id="QzwXXjxtQFz9qJuiZk76-30" value="" style="verticalLabelPosition=bottom;verticalAlign=top;html=1;shape=mxgraph.basic.rect;fillColor2=none;strokeWidth=1;size=20;indent=5;" vertex="1" parent="1">
          <mxGeometry y="160" width="260" height="60" as="geometry" />
        </mxCell>
        <mxCell id="QzwXXjxtQFz9qJuiZk76-31" value="" style="endArrow=none;html=1;rounded=0;" edge="1" parent="1">
          <mxGeometry relative="1" as="geometry">
            <mxPoint x="80" y="160" as="sourcePoint" />
            <mxPoint x="80.5" y="220" as="targetPoint" />
          </mxGeometry>
        </mxCell>
        <mxCell id="QzwXXjxtQFz9qJuiZk76-32" value="" style="line;strokeWidth=1;rotatable=0;dashed=0;labelPosition=right;align=left;verticalAlign=middle;spacingTop=0;spacingLeft=6;points=[];portConstraint=eastwest;" vertex="1" parent="1">
          <mxGeometry x="10" y="200" width="60" height="10" as="geometry" />
        </mxCell>
        <mxCell id="QzwXXjxtQFz9qJuiZk76-33" value="SportID" style="text;strokeColor=none;fillColor=none;spacingLeft=4;spacingRight=4;overflow=hidden;rotatable=0;points=[[0,0.5],[1,0.5]];portConstraint=eastwest;fontSize=12;whiteSpace=wrap;html=1;" vertex="1" parent="1">
          <mxGeometry x="10" y="175" width="60" height="30" as="geometry" />
        </mxCell>
        <mxCell id="QzwXXjxtQFz9qJuiZk76-34" value="SportName" style="text;strokeColor=none;fillColor=none;spacingLeft=4;spacingRight=4;overflow=hidden;rotatable=0;points=[[0,0.5],[1,0.5]];portConstraint=eastwest;fontSize=12;whiteSpace=wrap;html=1;" vertex="1" parent="1">
          <mxGeometry x="90" y="175" width="80" height="30" as="geometry" />
        </mxCell>
        <mxCell id="QzwXXjxtQFz9qJuiZk76-35" value="" style="endArrow=none;html=1;rounded=0;exitX=0.296;exitY=-0.009;exitDx=0;exitDy=0;exitPerimeter=0;entryX=0.296;entryY=0.987;entryDx=0;entryDy=0;entryPerimeter=0;" edge="1" parent="1">
          <mxGeometry relative="1" as="geometry">
            <mxPoint x="169.99999999999994" y="160.24" as="sourcePoint" />
            <mxPoint x="169.99999999999994" y="219.99999999999997" as="targetPoint" />
          </mxGeometry>
        </mxCell>
        <mxCell id="QzwXXjxtQFz9qJuiZk76-36" value="Description" style="text;strokeColor=none;fillColor=none;spacingLeft=4;spacingRight=4;overflow=hidden;rotatable=0;points=[[0,0.5],[1,0.5]];portConstraint=eastwest;fontSize=12;whiteSpace=wrap;html=1;" vertex="1" parent="1">
          <mxGeometry x="180" y="175" width="80" height="30" as="geometry" />
        </mxCell>
        <mxCell id="QzwXXjxtQFz9qJuiZk76-37" value="" style="endArrow=none;html=1;rounded=0;exitX=0.296;exitY=-0.009;exitDx=0;exitDy=0;exitPerimeter=0;entryX=0.296;entryY=0.987;entryDx=0;entryDy=0;entryPerimeter=0;" edge="1" parent="1">
          <mxGeometry relative="1" as="geometry">
            <mxPoint x="260" y="160" as="sourcePoint" />
            <mxPoint x="260" y="220" as="targetPoint" />
          </mxGeometry>
        </mxCell>
        <mxCell id="QzwXXjxtQFz9qJuiZk76-43" value="" style="edgeStyle=segmentEdgeStyle;endArrow=classic;html=1;curved=0;rounded=0;endSize=8;startSize=8;exitX=0.851;exitY=1.025;exitDx=0;exitDy=0;exitPerimeter=0;" edge="1" parent="1" source="QzwXXjxtQFz9qJuiZk76-1">
          <mxGeometry width="50" height="50" relative="1" as="geometry">
            <mxPoint x="410" y="110" as="sourcePoint" />
            <mxPoint x="40" y="220" as="targetPoint" />
            <Array as="points">
              <mxPoint x="400" y="250" />
              <mxPoint x="40" y="250" />
            </Array>
          </mxGeometry>
        </mxCell>
        <mxCell id="QzwXXjxtQFz9qJuiZk76-44" value="" style="verticalLabelPosition=bottom;verticalAlign=top;html=1;shape=mxgraph.basic.rect;fillColor2=none;strokeWidth=1;size=20;indent=5;" vertex="1" parent="1">
          <mxGeometry y="290" width="690" height="60" as="geometry" />
        </mxCell>
        <mxCell id="QzwXXjxtQFz9qJuiZk76-45" value="" style="endArrow=none;html=1;rounded=0;" edge="1" parent="1">
          <mxGeometry relative="1" as="geometry">
            <mxPoint x="80" y="290" as="sourcePoint" />
            <mxPoint x="80.5" y="350" as="targetPoint" />
          </mxGeometry>
        </mxCell>
        <mxCell id="QzwXXjxtQFz9qJuiZk76-46" value="" style="line;strokeWidth=1;rotatable=0;dashed=0;labelPosition=right;align=left;verticalAlign=middle;spacingTop=0;spacingLeft=6;points=[];portConstraint=eastwest;" vertex="1" parent="1">
          <mxGeometry x="10" y="330" width="60" height="10" as="geometry" />
        </mxCell>
        <mxCell id="QzwXXjxtQFz9qJuiZk76-47" value="UserID" style="text;strokeColor=none;fillColor=none;spacingLeft=4;spacingRight=4;overflow=hidden;rotatable=0;points=[[0,0.5],[1,0.5]];portConstraint=eastwest;fontSize=12;whiteSpace=wrap;html=1;" vertex="1" parent="1">
          <mxGeometry x="10" y="305" width="60" height="30" as="geometry" />
        </mxCell>
        <mxCell id="QzwXXjxtQFz9qJuiZk76-48" value="Email" style="text;strokeColor=none;fillColor=none;spacingLeft=4;spacingRight=4;overflow=hidden;rotatable=0;points=[[0,0.5],[1,0.5]];portConstraint=eastwest;fontSize=12;whiteSpace=wrap;html=1;" vertex="1" parent="1">
          <mxGeometry x="90" y="305" width="80" height="30" as="geometry" />
        </mxCell>
        <mxCell id="QzwXXjxtQFz9qJuiZk76-49" value="" style="endArrow=none;html=1;rounded=0;exitX=0.296;exitY=-0.009;exitDx=0;exitDy=0;exitPerimeter=0;entryX=0.296;entryY=0.987;entryDx=0;entryDy=0;entryPerimeter=0;" edge="1" parent="1">
          <mxGeometry relative="1" as="geometry">
            <mxPoint x="169.99999999999994" y="290.24" as="sourcePoint" />
            <mxPoint x="169.99999999999994" y="350" as="targetPoint" />
          </mxGeometry>
        </mxCell>
        <mxCell id="QzwXXjxtQFz9qJuiZk76-50" value="Username" style="text;strokeColor=none;fillColor=none;spacingLeft=4;spacingRight=4;overflow=hidden;rotatable=0;points=[[0,0.5],[1,0.5]];portConstraint=eastwest;fontSize=12;whiteSpace=wrap;html=1;" vertex="1" parent="1">
          <mxGeometry x="180" y="305" width="80" height="30" as="geometry" />
        </mxCell>
        <mxCell id="QzwXXjxtQFz9qJuiZk76-51" value="" style="endArrow=none;html=1;rounded=0;exitX=0.296;exitY=-0.009;exitDx=0;exitDy=0;exitPerimeter=0;entryX=0.296;entryY=0.987;entryDx=0;entryDy=0;entryPerimeter=0;" edge="1" parent="1">
          <mxGeometry relative="1" as="geometry">
            <mxPoint x="260" y="290" as="sourcePoint" />
            <mxPoint x="260" y="350" as="targetPoint" />
          </mxGeometry>
        </mxCell>
        <mxCell id="QzwXXjxtQFz9qJuiZk76-52" value="Password" style="text;strokeColor=none;fillColor=none;spacingLeft=4;spacingRight=4;overflow=hidden;rotatable=0;points=[[0,0.5],[1,0.5]];portConstraint=eastwest;fontSize=12;whiteSpace=wrap;html=1;" vertex="1" parent="1">
          <mxGeometry x="270" y="305" width="80" height="30" as="geometry" />
        </mxCell>
        <mxCell id="QzwXXjxtQFz9qJuiZk76-53" value="" style="endArrow=none;html=1;rounded=0;exitX=0.296;exitY=-0.009;exitDx=0;exitDy=0;exitPerimeter=0;entryX=0.296;entryY=0.987;entryDx=0;entryDy=0;entryPerimeter=0;" edge="1" parent="1">
          <mxGeometry relative="1" as="geometry">
            <mxPoint x="360" y="290" as="sourcePoint" />
            <mxPoint x="360" y="350" as="targetPoint" />
          </mxGeometry>
        </mxCell>
        <mxCell id="QzwXXjxtQFz9qJuiZk76-54" value="FirstName" style="text;strokeColor=none;fillColor=none;spacingLeft=4;spacingRight=4;overflow=hidden;rotatable=0;points=[[0,0.5],[1,0.5]];portConstraint=eastwest;fontSize=12;whiteSpace=wrap;html=1;" vertex="1" parent="1">
          <mxGeometry x="380" y="305" width="80" height="30" as="geometry" />
        </mxCell>
        <mxCell id="QzwXXjxtQFz9qJuiZk76-58" value="" style="endArrow=none;html=1;rounded=0;exitX=0.296;exitY=-0.009;exitDx=0;exitDy=0;exitPerimeter=0;entryX=0.296;entryY=0.987;entryDx=0;entryDy=0;entryPerimeter=0;" edge="1" parent="1">
          <mxGeometry relative="1" as="geometry">
            <mxPoint x="460" y="290" as="sourcePoint" />
            <mxPoint x="460" y="350" as="targetPoint" />
          </mxGeometry>
        </mxCell>
        <mxCell id="QzwXXjxtQFz9qJuiZk76-59" value="LastName" style="text;strokeColor=none;fillColor=none;spacingLeft=4;spacingRight=4;overflow=hidden;rotatable=0;points=[[0,0.5],[1,0.5]];portConstraint=eastwest;fontSize=12;whiteSpace=wrap;html=1;" vertex="1" parent="1">
          <mxGeometry x="470" y="305" width="90" height="30" as="geometry" />
        </mxCell>
        <mxCell id="QzwXXjxtQFz9qJuiZk76-60" value="" style="endArrow=none;html=1;rounded=0;exitX=0.296;exitY=-0.009;exitDx=0;exitDy=0;exitPerimeter=0;entryX=0.296;entryY=0.987;entryDx=0;entryDy=0;entryPerimeter=0;" edge="1" parent="1">
          <mxGeometry relative="1" as="geometry">
            <mxPoint x="560" y="290" as="sourcePoint" />
            <mxPoint x="560" y="350" as="targetPoint" />
          </mxGeometry>
        </mxCell>
        <mxCell id="QzwXXjxtQFz9qJuiZk76-61" value="RegistrationDate" style="text;strokeColor=none;fillColor=none;spacingLeft=4;spacingRight=4;overflow=hidden;rotatable=0;points=[[0,0.5],[1,0.5]];portConstraint=eastwest;fontSize=12;whiteSpace=wrap;html=1;" vertex="1" parent="1">
          <mxGeometry x="570" y="305" width="160" height="30" as="geometry" />
        </mxCell>
        <mxCell id="QzwXXjxtQFz9qJuiZk76-62" value="" style="edgeStyle=segmentEdgeStyle;endArrow=classic;html=1;curved=0;rounded=0;endSize=8;startSize=8;exitX=0.065;exitY=0.956;exitDx=0;exitDy=0;exitPerimeter=0;" edge="1" parent="1" source="QzwXXjxtQFz9qJuiZk76-64">
          <mxGeometry width="50" height="50" relative="1" as="geometry">
            <mxPoint x="50" y="490" as="sourcePoint" />
            <mxPoint x="40" y="100" as="targetPoint" />
            <Array as="points">
              <mxPoint x="46" y="500" />
              <mxPoint x="-40" y="500" />
              <mxPoint x="-40" y="130" />
              <mxPoint x="40" y="130" />
            </Array>
          </mxGeometry>
        </mxCell>
        <mxCell id="QzwXXjxtQFz9qJuiZk76-64" value="" style="verticalLabelPosition=bottom;verticalAlign=top;html=1;shape=mxgraph.basic.rect;fillColor2=none;strokeWidth=1;size=20;indent=5;" vertex="1" parent="1">
          <mxGeometry y="410" width="470" height="60" as="geometry" />
        </mxCell>
        <mxCell id="QzwXXjxtQFz9qJuiZk76-65" value="" style="endArrow=none;html=1;rounded=0;" edge="1" parent="1">
          <mxGeometry relative="1" as="geometry">
            <mxPoint x="90" y="410" as="sourcePoint" />
            <mxPoint x="90.5" y="470" as="targetPoint" />
          </mxGeometry>
        </mxCell>
        <mxCell id="QzwXXjxtQFz9qJuiZk76-67" value="EventID" style="text;strokeColor=none;fillColor=none;spacingLeft=4;spacingRight=4;overflow=hidden;rotatable=0;points=[[0,0.5],[1,0.5]];portConstraint=eastwest;fontSize=12;whiteSpace=wrap;html=1;" vertex="1" parent="1">
          <mxGeometry x="20" y="425" width="60" height="30" as="geometry" />
        </mxCell>
        <mxCell id="QzwXXjxtQFz9qJuiZk76-68" value="UserID" style="text;strokeColor=none;fillColor=none;spacingLeft=4;spacingRight=4;overflow=hidden;rotatable=0;points=[[0,0.5],[1,0.5]];portConstraint=eastwest;fontSize=12;whiteSpace=wrap;html=1;" vertex="1" parent="1">
          <mxGeometry x="100" y="425" width="80" height="30" as="geometry" />
        </mxCell>
        <mxCell id="QzwXXjxtQFz9qJuiZk76-69" value="" style="endArrow=none;html=1;rounded=0;exitX=0.296;exitY=-0.009;exitDx=0;exitDy=0;exitPerimeter=0;entryX=0.296;entryY=0.987;entryDx=0;entryDy=0;entryPerimeter=0;" edge="1" parent="1">
          <mxGeometry relative="1" as="geometry">
            <mxPoint x="179.99999999999994" y="410.24" as="sourcePoint" />
            <mxPoint x="179.99999999999994" y="470" as="targetPoint" />
          </mxGeometry>
        </mxCell>
        <mxCell id="QzwXXjxtQFz9qJuiZk76-70" value="RegistrationDate" style="text;strokeColor=none;fillColor=none;spacingLeft=4;spacingRight=4;overflow=hidden;rotatable=0;points=[[0,0.5],[1,0.5]];portConstraint=eastwest;fontSize=12;whiteSpace=wrap;html=1;" vertex="1" parent="1">
          <mxGeometry x="190" y="425" width="110" height="30" as="geometry" />
        </mxCell>
        <mxCell id="QzwXXjxtQFz9qJuiZk76-71" value="" style="endArrow=none;html=1;rounded=0;exitX=0.296;exitY=-0.009;exitDx=0;exitDy=0;exitPerimeter=0;entryX=0.296;entryY=0.987;entryDx=0;entryDy=0;entryPerimeter=0;" edge="1" parent="1">
          <mxGeometry relative="1" as="geometry">
            <mxPoint x="309.71" y="410" as="sourcePoint" />
            <mxPoint x="309.71" y="470" as="targetPoint" />
            <Array as="points">
              <mxPoint x="309.71" y="430" />
              <mxPoint x="309.71" y="440" />
            </Array>
          </mxGeometry>
        </mxCell>
        <mxCell id="QzwXXjxtQFz9qJuiZk76-74" value="RegistrationID" style="text;strokeColor=none;fillColor=none;spacingLeft=4;spacingRight=4;overflow=hidden;rotatable=0;points=[[0,0.5],[1,0.5]];portConstraint=eastwest;fontSize=12;whiteSpace=wrap;html=1;" vertex="1" parent="1">
          <mxGeometry x="340" y="425" width="110" height="30" as="geometry" />
        </mxCell>
        <mxCell id="QzwXXjxtQFz9qJuiZk76-75" value="" style="endArrow=none;html=1;rounded=0;exitX=0.296;exitY=-0.009;exitDx=0;exitDy=0;exitPerimeter=0;entryX=0.296;entryY=0.987;entryDx=0;entryDy=0;entryPerimeter=0;" edge="1" parent="1">
          <mxGeometry relative="1" as="geometry">
            <mxPoint x="470" y="410" as="sourcePoint" />
            <mxPoint x="470" y="470" as="targetPoint" />
          </mxGeometry>
        </mxCell>
        <mxCell id="QzwXXjxtQFz9qJuiZk76-80" value="" style="endArrow=none;dashed=1;html=1;rounded=0;" edge="1" parent="1">
          <mxGeometry width="50" height="50" relative="1" as="geometry">
            <mxPoint x="30" y="450" as="sourcePoint" />
            <mxPoint x="70" y="450" as="targetPoint" />
          </mxGeometry>
        </mxCell>
        <mxCell id="QzwXXjxtQFz9qJuiZk76-81" value="" style="endArrow=none;dashed=1;html=1;rounded=0;" edge="1" parent="1">
          <mxGeometry width="50" height="50" relative="1" as="geometry">
            <mxPoint x="380" y="80" as="sourcePoint" />
            <mxPoint x="450" y="80" as="targetPoint" />
          </mxGeometry>
        </mxCell>
        <mxCell id="QzwXXjxtQFz9qJuiZk76-82" value="" style="endArrow=classic;html=1;rounded=0;entryX=0.073;entryY=0.987;entryDx=0;entryDy=0;entryPerimeter=0;" edge="1" parent="1">
          <mxGeometry width="50" height="50" relative="1" as="geometry">
            <mxPoint x="120" y="470" as="sourcePoint" />
            <mxPoint x="40.36999999999989" y="349.99999999999994" as="targetPoint" />
            <Array as="points">
              <mxPoint x="120" y="520.78" />
              <mxPoint x="-90" y="520.78" />
              <mxPoint x="-90" y="500.78" />
              <mxPoint x="-90" y="470.78" />
              <mxPoint x="-90" y="370.78" />
              <mxPoint x="-70" y="370.78" />
              <mxPoint x="-20" y="370.78" />
              <mxPoint y="370.78" />
              <mxPoint x="40" y="370.78" />
            </Array>
          </mxGeometry>
        </mxCell>
        <mxCell id="QzwXXjxtQFz9qJuiZk76-84" value="" style="endArrow=none;dashed=1;html=1;rounded=0;" edge="1" parent="1">
          <mxGeometry width="50" height="50" relative="1" as="geometry">
            <mxPoint x="110" y="450" as="sourcePoint" />
            <mxPoint x="150" y="450" as="targetPoint" />
          </mxGeometry>
        </mxCell>
        <mxCell id="QzwXXjxtQFz9qJuiZk76-85" value="" style="verticalLabelPosition=bottom;verticalAlign=top;html=1;shape=mxgraph.basic.rect;fillColor2=none;strokeWidth=1;size=20;indent=5;" vertex="1" parent="1">
          <mxGeometry y="550" width="450" height="60" as="geometry" />
        </mxCell>
        <mxCell id="QzwXXjxtQFz9qJuiZk76-86" value="" style="endArrow=none;html=1;rounded=0;exitX=0.207;exitY=0.096;exitDx=0;exitDy=0;exitPerimeter=0;" edge="1" parent="1">
          <mxGeometry relative="1" as="geometry">
            <mxPoint x="130.34000000000023" y="550" as="sourcePoint" />
            <mxPoint x="130" y="610" as="targetPoint" />
          </mxGeometry>
        </mxCell>
        <mxCell id="QzwXXjxtQFz9qJuiZk76-87" value="" style="line;strokeWidth=1;rotatable=0;dashed=0;labelPosition=right;align=left;verticalAlign=middle;spacingTop=0;spacingLeft=6;points=[];portConstraint=eastwest;" vertex="1" parent="1">
          <mxGeometry x="10" y="590" width="110" height="10" as="geometry" />
        </mxCell>
        <mxCell id="QzwXXjxtQFz9qJuiZk76-88" value="MembershipTypeID" style="text;strokeColor=none;fillColor=none;spacingLeft=4;spacingRight=4;overflow=hidden;rotatable=0;points=[[0,0.5],[1,0.5]];portConstraint=eastwest;fontSize=12;whiteSpace=wrap;html=1;" vertex="1" parent="1">
          <mxGeometry x="10" y="565" width="140" height="30" as="geometry" />
        </mxCell>
        <mxCell id="QzwXXjxtQFz9qJuiZk76-91" value="Price" style="text;strokeColor=none;fillColor=none;spacingLeft=4;spacingRight=4;overflow=hidden;rotatable=0;points=[[0,0.5],[1,0.5]];portConstraint=eastwest;fontSize=12;whiteSpace=wrap;html=1;" vertex="1" parent="1">
          <mxGeometry x="150" y="565" width="80" height="30" as="geometry" />
        </mxCell>
        <mxCell id="QzwXXjxtQFz9qJuiZk76-93" value="MembershipName" style="text;strokeColor=none;fillColor=none;spacingLeft=4;spacingRight=4;overflow=hidden;rotatable=0;points=[[0,0.5],[1,0.5]];portConstraint=eastwest;fontSize=12;whiteSpace=wrap;html=1;" vertex="1" parent="1">
          <mxGeometry x="220" y="565" width="130" height="30" as="geometry" />
        </mxCell>
        <mxCell id="QzwXXjxtQFz9qJuiZk76-95" value="Description" style="text;strokeColor=none;fillColor=none;spacingLeft=4;spacingRight=4;overflow=hidden;rotatable=0;points=[[0,0.5],[1,0.5]];portConstraint=eastwest;fontSize=12;whiteSpace=wrap;html=1;" vertex="1" parent="1">
          <mxGeometry x="350" y="565" width="100" height="30" as="geometry" />
        </mxCell>
        <mxCell id="QzwXXjxtQFz9qJuiZk76-98" value="" style="endArrow=none;html=1;rounded=0;exitX=0.207;exitY=0.096;exitDx=0;exitDy=0;exitPerimeter=0;entryX=0.191;entryY=1.013;entryDx=0;entryDy=0;entryPerimeter=0;" edge="1" parent="1">
          <mxGeometry relative="1" as="geometry">
            <mxPoint x="210.34" y="550" as="sourcePoint" />
            <mxPoint x="209.99999999999977" y="611" as="targetPoint" />
          </mxGeometry>
        </mxCell>
        <mxCell id="QzwXXjxtQFz9qJuiZk76-100" value="" style="endArrow=none;html=1;rounded=0;exitX=0.207;exitY=0.096;exitDx=0;exitDy=0;exitPerimeter=0;entryX=0.191;entryY=1.013;entryDx=0;entryDy=0;entryPerimeter=0;" edge="1" parent="1">
          <mxGeometry relative="1" as="geometry">
            <mxPoint x="340.34000000000003" y="550" as="sourcePoint" />
            <mxPoint x="339.9999999999998" y="611" as="targetPoint" />
          </mxGeometry>
        </mxCell>
        <mxCell id="QzwXXjxtQFz9qJuiZk76-101" value="" style="verticalLabelPosition=bottom;verticalAlign=top;html=1;shape=mxgraph.basic.rect;fillColor2=none;strokeWidth=1;size=20;indent=5;" vertex="1" parent="1">
          <mxGeometry y="665" width="520" height="60" as="geometry" />
        </mxCell>
        <mxCell id="QzwXXjxtQFz9qJuiZk76-102" value="" style="endArrow=none;html=1;rounded=0;exitX=0.207;exitY=0.096;exitDx=0;exitDy=0;exitPerimeter=0;" edge="1" parent="1">
          <mxGeometry relative="1" as="geometry">
            <mxPoint x="85.10000000000024" y="665" as="sourcePoint" />
            <mxPoint x="84.76" y="725" as="targetPoint" />
            <Array as="points">
              <mxPoint x="84.76" y="695" />
            </Array>
          </mxGeometry>
        </mxCell>
        <mxCell id="QzwXXjxtQFz9qJuiZk76-103" value="" style="line;strokeWidth=1;rotatable=0;dashed=0;labelPosition=right;align=left;verticalAlign=middle;spacingTop=0;spacingLeft=6;points=[];portConstraint=eastwest;" vertex="1" parent="1">
          <mxGeometry x="30" y="720" width="110" height="10" as="geometry" />
        </mxCell>
        <mxCell id="QzwXXjxtQFz9qJuiZk76-104" value="UserID" style="text;strokeColor=none;fillColor=none;spacingLeft=4;spacingRight=4;overflow=hidden;rotatable=0;points=[[0,0.5],[1,0.5]];portConstraint=eastwest;fontSize=12;whiteSpace=wrap;html=1;" vertex="1" parent="1">
          <mxGeometry x="10" y="680" width="140" height="30" as="geometry" />
        </mxCell>
        <mxCell id="QzwXXjxtQFz9qJuiZk76-105" value="MembershipTypeID" style="text;strokeColor=none;fillColor=none;spacingLeft=4;spacingRight=4;overflow=hidden;rotatable=0;points=[[0,0.5],[1,0.5]];portConstraint=eastwest;fontSize=12;whiteSpace=wrap;html=1;" vertex="1" parent="1">
          <mxGeometry x="100" y="680" width="130" height="30" as="geometry" />
        </mxCell>
        <mxCell id="QzwXXjxtQFz9qJuiZk76-106" value="StartDate" style="text;strokeColor=none;fillColor=none;spacingLeft=4;spacingRight=4;overflow=hidden;rotatable=0;points=[[0,0.5],[1,0.5]];portConstraint=eastwest;fontSize=12;whiteSpace=wrap;html=1;" vertex="1" parent="1">
          <mxGeometry x="240" y="680" width="130" height="30" as="geometry" />
        </mxCell>
        <mxCell id="QzwXXjxtQFz9qJuiZk76-107" value="Description" style="text;strokeColor=none;fillColor=none;spacingLeft=4;spacingRight=4;overflow=hidden;rotatable=0;points=[[0,0.5],[1,0.5]];portConstraint=eastwest;fontSize=12;whiteSpace=wrap;html=1;" vertex="1" parent="1">
          <mxGeometry x="350" y="680" width="100" height="30" as="geometry" />
        </mxCell>
        <mxCell id="QzwXXjxtQFz9qJuiZk76-108" value="" style="endArrow=none;html=1;rounded=0;exitX=0.207;exitY=0.096;exitDx=0;exitDy=0;exitPerimeter=0;entryX=0.191;entryY=1.013;entryDx=0;entryDy=0;entryPerimeter=0;" edge="1" parent="1">
          <mxGeometry relative="1" as="geometry">
            <mxPoint x="229.86" y="665" as="sourcePoint" />
            <mxPoint x="229.51999999999978" y="726" as="targetPoint" />
          </mxGeometry>
        </mxCell>
        <mxCell id="QzwXXjxtQFz9qJuiZk76-109" value="" style="endArrow=none;html=1;rounded=0;exitX=0.207;exitY=0.096;exitDx=0;exitDy=0;exitPerimeter=0;entryX=0.191;entryY=1.013;entryDx=0;entryDy=0;entryPerimeter=0;" edge="1" parent="1">
          <mxGeometry relative="1" as="geometry">
            <mxPoint x="320.34000000000003" y="664" as="sourcePoint" />
            <mxPoint x="319.9999999999998" y="725" as="targetPoint" />
          </mxGeometry>
        </mxCell>
        <mxCell id="QzwXXjxtQFz9qJuiZk76-110" value="" style="endArrow=classic;html=1;rounded=0;entryX=0.014;entryY=0.982;entryDx=0;entryDy=0;entryPerimeter=0;exitX=0.183;exitY=0.7;exitDx=0;exitDy=0;exitPerimeter=0;" edge="1" parent="1" source="QzwXXjxtQFz9qJuiZk76-103" target="QzwXXjxtQFz9qJuiZk76-44">
          <mxGeometry width="50" height="50" relative="1" as="geometry">
            <mxPoint x="50" y="750" as="sourcePoint" />
            <mxPoint x="30" y="360" as="targetPoint" />
            <Array as="points">
              <mxPoint x="50" y="760" />
              <mxPoint x="-120" y="760" />
              <mxPoint x="-120" y="640" />
              <mxPoint x="-120" y="480" />
              <mxPoint x="-120" y="400" />
              <mxPoint x="-120" y="360" />
              <mxPoint x="-30" y="360" />
              <mxPoint x="-40" y="360" />
              <mxPoint y="360" />
              <mxPoint x="10" y="360" />
            </Array>
          </mxGeometry>
        </mxCell>
        <mxCell id="QzwXXjxtQFz9qJuiZk76-122" value="" style="endArrow=none;dashed=1;html=1;rounded=0;" edge="1" parent="1">
          <mxGeometry width="50" height="50" relative="1" as="geometry">
            <mxPoint x="20" y="709.23" as="sourcePoint" />
            <mxPoint x="60" y="709.23" as="targetPoint" />
          </mxGeometry>
        </mxCell>
        <mxCell id="QzwXXjxtQFz9qJuiZk76-123" value="" style="endArrow=none;dashed=1;html=1;rounded=0;" edge="1" parent="1">
          <mxGeometry width="50" height="50" relative="1" as="geometry">
            <mxPoint x="110" y="709.23" as="sourcePoint" />
            <mxPoint x="212" y="710" as="targetPoint" />
          </mxGeometry>
        </mxCell>
        <mxCell id="QzwXXjxtQFz9qJuiZk76-125" value="" style="endArrow=classic;html=1;rounded=0;entryX=0.459;entryY=0.787;entryDx=0;entryDy=0;entryPerimeter=0;exitX=0.308;exitY=1.024;exitDx=0;exitDy=0;exitPerimeter=0;" edge="1" parent="1" source="QzwXXjxtQFz9qJuiZk76-101" target="QzwXXjxtQFz9qJuiZk76-87">
          <mxGeometry width="50" height="50" relative="1" as="geometry">
            <mxPoint x="160" y="740" as="sourcePoint" />
            <mxPoint x="60" y="600" as="targetPoint" />
            <Array as="points">
              <mxPoint x="160" y="790" />
              <mxPoint x="160" y="800" />
              <mxPoint x="90" y="800" />
              <mxPoint x="-40" y="800" />
              <mxPoint x="-40" y="700" />
              <mxPoint x="-40" y="640" />
              <mxPoint x="60" y="640" />
            </Array>
          </mxGeometry>
        </mxCell>
        <mxCell id="QzwXXjxtQFz9qJuiZk76-126" value="" style="verticalLabelPosition=bottom;verticalAlign=top;html=1;shape=mxgraph.basic.rect;fillColor2=none;strokeWidth=1;size=20;indent=5;" vertex="1" parent="1">
          <mxGeometry y="850" width="450" height="60" as="geometry" />
        </mxCell>
        <mxCell id="QzwXXjxtQFz9qJuiZk76-127" value="" style="endArrow=none;html=1;rounded=0;exitX=0.207;exitY=0.096;exitDx=0;exitDy=0;exitPerimeter=0;" edge="1" parent="1">
          <mxGeometry relative="1" as="geometry">
            <mxPoint x="130.34000000000026" y="850" as="sourcePoint" />
            <mxPoint x="130" y="910" as="targetPoint" />
          </mxGeometry>
        </mxCell>
        <mxCell id="QzwXXjxtQFz9qJuiZk76-128" value="" style="line;strokeWidth=1;rotatable=0;dashed=0;labelPosition=right;align=left;verticalAlign=middle;spacingTop=0;spacingLeft=6;points=[];portConstraint=eastwest;" vertex="1" parent="1">
          <mxGeometry x="10" y="890" width="110" height="10" as="geometry" />
        </mxCell>
        <mxCell id="QzwXXjxtQFz9qJuiZk76-129" value="ContactID" style="text;strokeColor=none;fillColor=none;spacingLeft=4;spacingRight=4;overflow=hidden;rotatable=0;points=[[0,0.5],[1,0.5]];portConstraint=eastwest;fontSize=12;whiteSpace=wrap;html=1;" vertex="1" parent="1">
          <mxGeometry x="10" y="865" width="140" height="30" as="geometry" />
        </mxCell>
        <mxCell id="QzwXXjxtQFz9qJuiZk76-130" value="Name" style="text;strokeColor=none;fillColor=none;spacingLeft=4;spacingRight=4;overflow=hidden;rotatable=0;points=[[0,0.5],[1,0.5]];portConstraint=eastwest;fontSize=12;whiteSpace=wrap;html=1;" vertex="1" parent="1">
          <mxGeometry x="150" y="865" width="80" height="30" as="geometry" />
        </mxCell>
        <mxCell id="QzwXXjxtQFz9qJuiZk76-131" value="Email" style="text;strokeColor=none;fillColor=none;spacingLeft=4;spacingRight=4;overflow=hidden;rotatable=0;points=[[0,0.5],[1,0.5]];portConstraint=eastwest;fontSize=12;whiteSpace=wrap;html=1;" vertex="1" parent="1">
          <mxGeometry x="220" y="865" width="130" height="30" as="geometry" />
        </mxCell>
        <mxCell id="QzwXXjxtQFz9qJuiZk76-132" value="ContactDate" style="text;strokeColor=none;fillColor=none;spacingLeft=4;spacingRight=4;overflow=hidden;rotatable=0;points=[[0,0.5],[1,0.5]];portConstraint=eastwest;fontSize=12;whiteSpace=wrap;html=1;" vertex="1" parent="1">
          <mxGeometry x="350" y="865" width="100" height="30" as="geometry" />
        </mxCell>
        <mxCell id="QzwXXjxtQFz9qJuiZk76-133" value="" style="endArrow=none;html=1;rounded=0;exitX=0.207;exitY=0.096;exitDx=0;exitDy=0;exitPerimeter=0;entryX=0.191;entryY=1.013;entryDx=0;entryDy=0;entryPerimeter=0;" edge="1" parent="1">
          <mxGeometry relative="1" as="geometry">
            <mxPoint x="210.34000000000003" y="850" as="sourcePoint" />
            <mxPoint x="209.99999999999977" y="911" as="targetPoint" />
          </mxGeometry>
        </mxCell>
        <mxCell id="QzwXXjxtQFz9qJuiZk76-134" value="" style="endArrow=none;html=1;rounded=0;exitX=0.207;exitY=0.096;exitDx=0;exitDy=0;exitPerimeter=0;entryX=0.191;entryY=1.013;entryDx=0;entryDy=0;entryPerimeter=0;" edge="1" parent="1">
          <mxGeometry relative="1" as="geometry">
            <mxPoint x="340.34000000000003" y="850" as="sourcePoint" />
            <mxPoint x="339.9999999999998" y="911" as="targetPoint" />
          </mxGeometry>
        </mxCell>
        <mxCell id="QzwXXjxtQFz9qJuiZk76-136" value="&lt;div&gt;&lt;span style=&quot;font-size: 18px;&quot;&gt;User&lt;/span&gt;&lt;/div&gt;" style="text;strokeColor=none;fillColor=none;spacingLeft=4;spacingRight=4;overflow=hidden;rotatable=0;points=[[0,0.5],[1,0.5]];portConstraint=eastwest;fontSize=12;whiteSpace=wrap;html=1;" vertex="1" parent="1">
          <mxGeometry y="260" width="140" height="30" as="geometry" />
        </mxCell>
        <mxCell id="QzwXXjxtQFz9qJuiZk76-137" value="&lt;div&gt;&lt;span style=&quot;font-size: 18px;&quot;&gt;Sport&lt;/span&gt;&lt;/div&gt;" style="text;strokeColor=none;fillColor=none;spacingLeft=4;spacingRight=4;overflow=hidden;rotatable=0;points=[[0,0.5],[1,0.5]];portConstraint=eastwest;fontSize=12;whiteSpace=wrap;html=1;" vertex="1" parent="1">
          <mxGeometry y="130" width="140" height="30" as="geometry" />
        </mxCell>
        <mxCell id="QzwXXjxtQFz9qJuiZk76-138" value="&lt;div&gt;&lt;span style=&quot;font-size: 18px;&quot;&gt;EventRegistration&lt;/span&gt;&lt;/div&gt;" style="text;strokeColor=none;fillColor=none;spacingLeft=4;spacingRight=4;overflow=hidden;rotatable=0;points=[[0,0.5],[1,0.5]];portConstraint=eastwest;fontSize=12;whiteSpace=wrap;html=1;" vertex="1" parent="1">
          <mxGeometry x="10" y="370" width="170" height="30" as="geometry" />
        </mxCell>
        <mxCell id="QzwXXjxtQFz9qJuiZk76-139" value="&lt;div&gt;&lt;span style=&quot;font-size: 18px;&quot;&gt;MembershipTypes&lt;/span&gt;&lt;/div&gt;" style="text;strokeColor=none;fillColor=none;spacingLeft=4;spacingRight=4;overflow=hidden;rotatable=0;points=[[0,0.5],[1,0.5]];portConstraint=eastwest;fontSize=12;whiteSpace=wrap;html=1;" vertex="1" parent="1">
          <mxGeometry y="520" width="180" height="30" as="geometry" />
        </mxCell>
        <mxCell id="QzwXXjxtQFz9qJuiZk76-142" value="&lt;div&gt;&lt;span style=&quot;font-size: 18px;&quot;&gt;User&lt;/span&gt;&lt;/div&gt;" style="text;strokeColor=none;fillColor=none;spacingLeft=4;spacingRight=4;overflow=hidden;rotatable=0;points=[[0,0.5],[1,0.5]];portConstraint=eastwest;fontSize=12;whiteSpace=wrap;html=1;" vertex="1" parent="1">
          <mxGeometry y="635" width="140" height="30" as="geometry" />
        </mxCell>
        <mxCell id="QzwXXjxtQFz9qJuiZk76-143" value="&lt;div&gt;&lt;span style=&quot;font-size: 18px;&quot;&gt;Contact&lt;/span&gt;&lt;/div&gt;" style="text;strokeColor=none;fillColor=none;spacingLeft=4;spacingRight=4;overflow=hidden;rotatable=0;points=[[0,0.5],[1,0.5]];portConstraint=eastwest;fontSize=12;whiteSpace=wrap;html=1;" vertex="1" parent="1">
          <mxGeometry y="820" width="140" height="30" as="geometry" />
        </mxCell>
      </root>
    </mxGraphModel>
  </diagram>
</mxfile>
